<svg width="1920" height="1011" viewBox="0 0 1920 1011" fill="none" xmlns="http://www.w3.org/2000/svg">
<g opacity="0.05">
<mask id="mask0_194_1495" style="mask-type:alpha" maskUnits="userSpaceOnUse" x="0" y="-911" width="1920" height="1920">
<rect y="-911" width="1920" height="1920" fill="url(#paint0_radial_194_1495)"/>
<rect x="1.28" y="-909.72" width="1917.44" height="1917.44" stroke="#F399FF" stroke-opacity="0.15" stroke-width="2.56"/>
</mask>
<g mask="url(#mask0_194_1495)">
<path d="M101.052 -911V1009M202.105 -911V1009M303.158 -911V1009M404.21 -911V1009M505.263 -911V1009M606.315 -911V1009M707.368 -911V1009M808.42 -911V1009M909.473 -911V1009M1010.53 -911V1009M1111.58 -911V1009M1212.63 -911V1009M1313.68 -911V1009M1414.74 -911V1009M1515.79 -911V1009M1616.84 -911V1009M1717.89 -911V1009M1818.95 -911V1009M0 -809.947H1920M0 -708.895H1920M0 -607.842H1920M0 -506.79H1920M0 -405.737H1920M0 -304.684H1920M0 -203.632H1920M0 -102.579H1920M0 -1.52623H1920M0 99.5263H1920M0 200.579H1920M0 301.632H1920M0 402.684H1920M0 503.737H1920M0 604.79H1920M0 705.842H1920M0 806.895H1920M0 907.947H1920M0 -911V1009H1920V-911H0Z" stroke="#F399FF" stroke-width="4"/>
<path d="M1213.6 -907H1314.4V-806.2H1213.6V-907Z" fill="#F399FF"/>
<path d="M104.8 -705.4H205.6V-604.6H104.8V-705.4Z" fill="#F399FF"/>
<path d="M104.8 -201.4H205.6V-100.6H104.8V-201.4Z" fill="#F399FF"/>
<path d="M1112.8 605H1213.6V705.8H1112.8V605Z" fill="#F399FF"/>
<path d="M304.2 604H405V704.8H304.2V604Z" fill="#F399FF"/>
<path d="M707.4 200.8H808.2V301.6H707.4V200.8Z" fill="#F399FF"/>
<path d="M405 402.4H505.8V503.2H405V402.4Z" fill="#F399FF"/>
<path d="M1213.6 504.2H1314.4V605H1213.6V504.2Z" fill="#F399FF"/>
<path d="M1213.6 705.8H1314.4V806.6H1213.6V705.8Z" fill="#F399FF"/>
<path d="M306.4 -806.2H407.2V-705.4H306.4V-806.2Z" fill="#F399FF"/>
<path d="M306.4 -604.6H407.2V-503.8H306.4V-604.6Z" fill="#F399FF"/>
<path d="M306.4 -302.2H407.2V-201.4H306.4V-302.2Z" fill="#F399FF"/>
<path d="M299.4 99.9999H400.2V200.8H299.4V99.9999Z" fill="#F399FF"/>
<path d="M1112.8 101H1213.6V201.8H1112.8V101Z" fill="#F399FF"/>
<path d="M1112.8 403.4H1213.6V504.2H1112.8V403.4Z" fill="#F399FF"/>
<path d="M508 -806.2H608.8V-705.4H508V-806.2Z" fill="#F399FF"/>
<path d="M508 -302.2H608.8V-201.4H508V-302.2Z" fill="#F399FF"/>
<path d="M508 -100.6H608.8V0.199951H508V-100.6Z" fill="#F399FF"/>
<path d="M608.8 -503.8H709.6V-403H608.8V-503.8Z" fill="#F399FF"/>
<path d="M1314.4 101H1415.2V201.8H1314.4V101Z" fill="#F399FF"/>
<path d="M1314.4 302.6H1415.2V403.4H1314.4V302.6Z" fill="#F399FF"/>
<path d="M709.6 -302.2H810.4V-201.4H709.6V-302.2Z" fill="#F399FF"/>
<path d="M1415.2 0.199951H1516V101H1415.2V0.199951Z" fill="#F399FF"/>
<path d="M1112.8 -705.4H1213.6V-604.6H1112.8V-705.4Z" fill="#F399FF"/>
<path d="M810.4 -100.6H911.2V0.199951H810.4V-100.6Z" fill="#F399FF"/>
<path d="M911.2 -403H1012V-302.2H911.2V-403Z" fill="#F399FF"/>
<path d="M1616.8 201.8H1717.6V302.6H1616.8V201.8Z" fill="#F399FF"/>
<path d="M1616.8 403.4H1717.6V504.2H1616.8V403.4Z" fill="#F399FF"/>
<path d="M1314.4 -705.4H1415.2V-604.6H1314.4V-705.4Z" fill="#F399FF"/>
<path d="M1314.4 -604.6H1415.2V-503.8H1314.4V-604.6Z" fill="#F399FF"/>
<path d="M1012 -201.4H1112.8V-100.6H1012V-201.4Z" fill="#F399FF"/>
<path d="M1717.6 0.199951H1818.4V101H1717.6V0.199951Z" fill="#F399FF"/>
<path d="M1717.6 201.8H1818.4V302.6H1717.6V201.8Z" fill="#F399FF"/>
<path d="M1818.4 302.6H1919.2V403.4H1818.4V302.6Z" fill="#F399FF"/>
<path d="M4 -302.2H104.8V-201.4H4V-302.2Z" fill="#F399FF"/>
<path d="M203.4 503.2H304.2V604H203.4V503.2Z" fill="#F399FF"/>
<path d="M606.6 402.4H707.4V503.2H606.6V402.4Z" fill="#F399FF"/>
</g>
</g>
<defs>
<radialGradient id="paint0_radial_194_1495" cx="0" cy="0" r="1" gradientUnits="userSpaceOnUse" gradientTransform="translate(960 49) rotate(90) scale(960)">
<stop stop-color="white"/>
<stop offset="1" stop-color="white" stop-opacity="0"/>
</radialGradient>
</defs>
</svg>
